<svg xmlns="http://www.w3.org/2000/svg" viewBox="0 0 100 100" width="100" height="100" role="img" aria-label="Conjure">
  <rect x="0" y="0" width="100" height="100" rx="22" fill="#26231d"/>
  <g transform="translate(-1,-1) scale(1.0625)">
    <path d="M30 78 L24 78 A8 8 0 0 1 16 70 L16 26 A8 8 0 0 1 24 18 L72 18 A8 8 0 0 1 80 26 L80 50"
          fill="none" stroke="#efe9dd" stroke-width="6.5" stroke-linecap="round" stroke-linejoin="round"/>
    <path d="M24 18 L72 18 A8 8 0 0 1 80 26 L80 30 L16 30 L16 26 A8 8 0 0 1 24 18 Z" fill="#c0512f"/>
    <g stroke="#efe9dd" stroke-width="6.5" stroke-linecap="round">
      <path d="M30 78 L46 78" opacity="0.9"/>
      <path d="M55 78 L64 78" opacity="0.5"/>
      <path d="M80 58 L80 67" opacity="0.42"/>
    </g>
  </g>
</svg>
