<svg xmlns="http://www.w3.org/2000/svg" viewBox="0 0 1200 630" width="1200" height="630">
<rect width="1200" height="630" fill="#e7e0d2"/>
<path d="M46.0 70.0 L46.0 46.0 L70.0 46.0" stroke="#c3b79e" stroke-width="2" fill="none"/>
<path d="M1130.0 46.0 L1154.0 46.0 L1154.0 70.0" stroke="#c3b79e" stroke-width="2" fill="none"/>
<path d="M46.0 560.0 L46.0 584.0 L70.0 584.0" stroke="#c3b79e" stroke-width="2" fill="none"/>
<path d="M1130.0 584.0 L1154.0 584.0 L1154.0 560.0" stroke="#c3b79e" stroke-width="2" fill="none"/>
<g transform="translate(481.600,75.600) scale(2.46667)">
<path d="M30 78 L24 78 A8 8 0 0 1 16 70 L16 26 A8 8 0 0 1 24 18 L72 18 A8 8 0 0 1 80 26 L80 50" fill="none" stroke="#26231d" stroke-width="6.5" stroke-linecap="round" stroke-linejoin="round"/>
<path d="M24 18 L72 18 A8 8 0 0 1 80 26 L80 30 L16 30 L16 26 A8 8 0 0 1 24 18 Z" fill="#b2482b"/>
<g stroke="#26231d" stroke-width="6.5" stroke-linecap="round">
  <path d="M30 78 L46 78" opacity="0.9"/>
  <path d="M55 78 L64 78" opacity="0.48"/>
  <path d="M80 58 L80 67" opacity="0.42"/>
</g>
</g>
<g transform="translate(264.792,450.000) scale(0.169297,-0.169297)" fill="#26231d">
<path transform="translate(0.00,0)" d="M372.4000244140625 -14.400146484375Q274.39990234375 -14.400146484375 200.09979248046875 30.9998779296875Q125.7996826171875 76.39990234375 84.29962158203125 158.2999267578125Q42.799560546875 240.199951171875 42.799560546875 349Q42.799560546875 457.800048828125 84.29962158203125 539.2000732421875Q125.7996826171875 620.60009765625 200.09979248046875 666.0001220703125Q274.39990234375 711.400146484375 372.4000244140625 711.400146484375Q481.4002685546875 711.400146484375 560.8004150390625 657.2000122070312Q640.2005615234375 602.9998779296875 675.0006103515625 507.399658203125L566.5989990234375 467.59912109375Q542.9991455078125 530.798828125 493.19940185546875 565.898681640625Q443.399658203125 600.99853515625 372.4000244140625 600.99853515625Q307.400390625 600.99853515625 259.00067138671875 570.19873046875Q210.6009521484375 539.39892578125 184.5010986328125 483.29925537109375Q158.4012451171875 427.1995849609375 158.4012451171875 349Q158.4012451171875 270.8004150390625 184.5010986328125 214.20074462890625Q210.6009521484375 157.60107421875 259.00067138671875 126.80126953125Q307.400390625 96.00146484375 372.4000244140625 96.00146484375Q443.399658203125 96.00146484375 493.19940185546875 131.40130615234375Q542.9991455078125 166.8011474609375 566.5989990234375 229.40087890625L675.0006103515625 190.2003173828125Q640.2005615234375 95.60009765625 560.8004150390625 40.5999755859375Q481.4002685546875 -14.400146484375 372.4000244140625 -14.400146484375Z"/>
<path transform="translate(768.00,0)" d="M287.4128901494014 -9.2000732421875Q216.7998046875 -9.2000732421875 161.0997314453125 23.699951171875Q105.399658203125 56.5999755859375 73.599609375 114.77574388908617Q41.799560546875 172.95151219223484 41.799560546875 247.1757683031487Q41.799560546875 321.4000244140625 73.29962158203125 379.10003662109375Q104.7996826171875 436.800048828125 160.499755859375 469.50006103515625Q216.1998291015625 502.2000732421875 287.39990234375 502.2000732421875Q358.5999755859375 502.2000732421875 413.49296001005456 469.54652056356116Q468.3859444341716 436.8929678849348 500.1930942873983 379.1212977612113Q532.000244140625 321.3496276374877 532.000244140625 247Q532.000244140625 173 500.275524585278 115.11876126284099Q468.550805029931 57.237522525681975 413.2883903206169 24.018724641747237Q358.0259756113028 -9.2000732421875 287.4128901494014 -9.2000732421875ZM287.5388581928454 88.601318359375Q328.799560546875 88.601318359375 358.69927978515625 107.901123046875Q388.5989990234375 127.200927734375 404.59881591796875 162.900634765625Q420.5986328125 198.600341796875 420.5986328125 247.05137928254013Q420.5986328125 296.399658203125 404.59881591796875 331.6993408203125Q388.5989990234375 366.9990234375 358.69927978515625 385.99884033203125Q328.799560546875 404.9986572265625 287.5388581928454 404.9986572265625Q245.4002685546875 404.9986572265625 215.2005615234375 385.6988525390625Q185.0008544921875 366.3990478515625 168.801025390625 331.39935302734375Q152.6011962890625 296.399658203125 152.6011962890625 247.05137928254013Q152.6011962890625 198.600341796875 168.801025390625 162.900634765625Q185.0008544921875 127.200927734375 215.2005615234375 107.901123046875Q245.4002685546875 88.601318359375 287.5388581928454 88.601318359375Z"/>
<path transform="translate(1402.00,0)" d="M64.799560546875 0V493H176.201171875V383.5997314453125L156.201171875 379.39990234375Q169.401123046875 422.2001953125 194.201171875 449.1002197265625Q219.001220703125 476.000244140625 252.40118408203125 489.10015869140625Q285.8011474609375 502.2000732421875 322.8009033203125 502.2000732421875Q405.801025390625 502.2000732421875 452.60107421875 454.7000732421875Q499.401123046875 407.2000732421875 499.401123046875 319.0003662109375V0H387.99951171875V277.999755859375Q387.99951171875 344.19921875 364.0997314453125 375.09893798828125Q340.199951171875 405.9986572265625 290.2003173828125 405.9986572265625Q252.800537109375 405.9986572265625 227.500732421875 388.5987548828125Q202.200927734375 371.1988525390625 189.2010498046875 334.299072265625Q176.201171875 297.3992919921875 176.201171875 239.599609375V0Z"/>
<path transform="translate(2021.00,0)" d="M59.6004638671875 -213.2000732421875Q40.600341796875 -213.2000732421875 18.40020751953125 -209.300048828125Q-3.7999267578125 -205.4000244140625 -25 -199V-102.5986328125Q-11.0001220703125 -106.3985595703125 0.39984130859375 -108.19854736328125Q11.7998046875 -109.99853515625 19.1998291015625 -109.99853515625Q40.7996826171875 -109.99853515625 52.29962158203125 -99.2987060546875Q63.799560546875 -88.598876953125 63.799560546875 -58.1990966796875V493H174.6011962890625V-88.1995849609375Q174.6011962890625 -152.7998046875 143.0009765625 -182.99993896484375Q111.4007568359375 -213.2000732421875 59.6004638671875 -213.2000732421875ZM59.19970703125 573.5994873046875V697.0H180.801025390625V573.5994873046875Z"/>
<path transform="translate(2320.00,0)" d="M235.9998779296875 -9.2000732421875Q178.1995849609375 -9.2000732421875 138.3995361328125 13.9000244140625Q98.5994873046875 37.0001220703125 78.69952392578125 80.2001953125Q58.799560546875 123.4002685546875 58.799560546875 183.8001708984375V493H169.6011962890625V214.2001953125Q169.6011962890625 175.2008056640625 179.10101318359375 146.7010498046875Q188.600830078125 118.2012939453125 210.400634765625 102.90130615234375Q232.200439453125 87.601318359375 268.8004150390625 87.601318359375Q311.800537109375 87.601318359375 336.30029296875 110.50152587890625Q360.800048828125 133.4017333984375 371.3997802734375 176.6019287109375Q381.99951171875 219.8021240234375 381.99951171875 280.802001953125V493H492.8011474609375V0H381.99951171875V106.2000732421875L400.599365234375 99.399658203125Q378.3992919921875 43.1995849609375 334.59942626953125 16.999755859375Q290.799560546875 -9.2000732421875 235.9998779296875 -9.2000732421875Z"/>
<path transform="translate(2939.00,0)" d="M64.799560546875 0V493H176.6011962890625V359.7999267578125L156.2012939453125 356.800048828125Q160.8011474609375 400 184.9010009765625 432.70001220703125Q209.0008544921875 465.4000244140625 243.30078125 483.800048828125Q277.6007080078125 502.2000732421875 312.000732421875 502.2000732421875Q336.2008056640625 502.2000732421875 358.20086669921875 496.20001220703125Q380.200927734375 490.199951171875 403.801025390625 476.1998291015625L349.80029296875 376.1983642578125Q338.600341796875 382.598388671875 321.50030517578125 387.19842529296875Q304.4002685546875 391.7984619140625 288.2001953125 391.7984619140625Q267.0003662109375 391.7984619140625 246.7005615234375 383.99853515625Q226.4007568359375 376.1986083984375 210.40093994140625 359.79876708984375Q194.401123046875 343.39892578125 185.6011962890625 316.5992431640625Q181.201171875 302.5992431640625 178.701171875 280.499267578125Q176.201171875 258.3992919921875 176.201171875 218.19921875V0Z"/>
<path transform="translate(3419.00,0)" d="M280.800048828125 -9.2000732421875Q218.7998046875 -9.2000732421875 173.49969482421875 11.0999755859375Q128.1995849609375 31.4000244140625 99.09954833984375 67.00006103515625Q69.99951171875 102.60009765625 55.8995361328125 148.10009765625Q41.799560546875 193.60009765625 41.799560546875 243.4000244140625Q41.799560546875 292.39990234375 55.59954833984375 338.69989013671875Q69.3995361328125 384.9998779296875 97.299560546875 421.7999267578125Q125.1995849609375 458.5999755859375 168.99969482421875 480.4000244140625Q212.7998046875 502.2000732421875 272.800048828125 502.2000732421875Q330.2000732421875 502.2000732421875 372.70013427734375 482.7000732421875Q415.2001953125 463.2000732421875 442.9002685546875 428.800048828125Q470.600341796875 394.4000244140625 484.400390625 349.9998779296875Q498.200439453125 305.5997314453125 498.200439453125 255.7994384765625Q498.200439453125 249.3992919921875 497.700439453125 236.29937744140625Q497.200439453125 223.199462890625 495.200439453125 210.1993408203125H152.6011962890625Q156.80126953125 151.0001220703125 192.80108642578125 119.8006591796875Q228.8009033203125 88.6011962890625 285.4002685546875 88.6011962890625Q325.60009765625 88.6011962890625 360.000244140625 102.00115966796875Q394.400390625 115.401123046875 422.400390625 142.8009033203125L483.4005126953125 69.1995849609375Q451.6002197265625 41.399658203125 420.8001708984375 24.0997314453125Q390.0001220703125 6.7998046875 356.5001220703125 -1.20013427734375Q323.0001220703125 -9.2000732421875 280.800048828125 -9.2000732421875ZM388.598876953125 266.0001220703125Q390.598876953125 274.0001220703125 391.4989013671875 282.0001220703125Q392.39892578125 290.0001220703125 392.39892578125 297.60009765625Q392.39892578125 319.5999755859375 384.49896240234375 339.79974365234375Q376.5989990234375 359.99951171875 361.6990966796875 375.69927978515625Q346.7991943359375 391.3990478515625 325.09942626953125 400.4989013671875Q303.399658203125 409.5987548828125 275.2000732421875 409.5987548828125Q236.2003173828125 409.5987548828125 209.40057373046875 392.7989501953125Q182.600830078125 375.9991455078125 168.4010009765625 349.3995361328125Q154.201171875 322.7999267578125 151.201171875 292.4005126953125H425.3994140625Z"/>
</g>
<g transform="translate(384.476,568.000) scale(0.041607,-0.041607)" fill="#6d665a">
<path transform="translate(0.00,0)" d="M70.99951171875 0V697H270.7999267578125Q443.4000244140625 697 538.2000732421875 604.7000122070312Q633.0001220703125 512.4000244140625 633.0001220703125 343Q633.0001220703125 177 539.4000854492188 88.5Q445.800048828125 0 269.7999267578125 0ZM186.6011962890625 106.2015380859375H258.5997314453125Q340.3992919921875 106.2015380859375 398.0989990234375 128.50128173828125Q455.7987060546875 150.801025390625 486.09857177734375 203.70068359375Q516.3984375 256.600341796875 516.3984375 347.2000732421875Q516.3984375 436.5997314453125 486.6986083984375 490.099365234375Q456.998779296875 543.5989990234375 401.6990966796875 567.19873046875Q346.3994140625 590.7984619140625 268.9998779296875 590.7984619140625H186.6011962890625Z"/>
<path transform="translate(712.00,0)" d="M64.799560546875 0V493H176.6011962890625V359.7999267578125L156.2012939453125 356.800048828125Q160.8011474609375 400 184.9010009765625 432.70001220703125Q209.0008544921875 465.4000244140625 243.30078125 483.800048828125Q277.6007080078125 502.2000732421875 312.000732421875 502.2000732421875Q336.2008056640625 502.2000732421875 358.20086669921875 496.20001220703125Q380.200927734375 490.199951171875 403.801025390625 476.1998291015625L349.80029296875 376.1983642578125Q338.600341796875 382.598388671875 321.50030517578125 387.19842529296875Q304.4002685546875 391.7984619140625 288.2001953125 391.7984619140625Q267.0003662109375 391.7984619140625 246.7005615234375 383.99853515625Q226.4007568359375 376.1986083984375 210.40093994140625 359.79876708984375Q194.401123046875 343.39892578125 185.6011962890625 316.5992431640625Q181.201171875 302.5992431640625 178.701171875 280.499267578125Q176.201171875 258.3992919921875 176.201171875 218.19921875V0Z"/>
<path transform="translate(1168.00,0)" d="M383.19921875 0 374.799072265625 82.5989990234375V310.60009765625Q374.799072265625 358.799560546875 345.89923095703125 383.399169921875Q316.9993896484375 407.998779296875 265 407.998779296875Q225.4000244140625 407.998779296875 186.7998046875 392.298828125Q148.1995849609375 376.598876953125 116.399658203125 344.79931640625L54.1995849609375 418.400634765625Q102.4000244140625 462.8004150390625 156.40008544921875 482.500244140625Q210.400146484375 502.2000732421875 273.8001708984375 502.2000732421875Q374.0003662109375 502.2000732421875 429.60052490234375 451.60003662109375Q485.20068359375 401 485.20068359375 310.60009765625V0ZM229.7998046875 -9.2000732421875Q174.9998779296875 -9.2000732421875 132.6998291015625 10.699951171875Q90.3997802734375 30.5999755859375 66.69970703125 66.800048828125Q42.9996337890625 103.0001220703125 42.9996337890625 150.6002197265625Q42.9996337890625 192.4002685546875 60.2996826171875 222.30035400390625Q77.5997314453125 252.200439453125 105.599853515625 268.6004638671875Q130.3997802734375 284.0003662109375 162.09967041015625 290.30035400390625Q193.799560546875 296.600341796875 229.199462890625 296.600341796875H384.399169921875V213.7991943359375H245.19970703125Q227.199951171875 213.7991943359375 209.00030517578125 210.5992431640625Q190.8006591796875 207.3992919921875 177.200927734375 197.5994873046875Q166.60107421875 189.599609375 160.50115966796875 177.59979248046875Q154.4012451171875 165.5999755859375 154.4012451171875 150.000244140625Q154.4012451171875 118.20068359375 178.80096435546875 99.40093994140625Q203.20068359375 80.6011962890625 244.2001953125 80.6011962890625Q279.9998779296875 80.6011962890625 309.4996337890625 96.60101318359375Q338.9993896484375 112.600830078125 356.89923095703125 140.70050048828125Q374.799072265625 168.8001708984375 374.799072265625 204.3997802734375L408.5989990234375 148.798583984375Q397.398681640625 96.5986328125 371.19866943359375 61.198974609375Q344.9986572265625 25.79931640625 308.89892578125 8.29962158203125Q272.7991943359375 -9.2000732421875 229.7998046875 -9.2000732421875Z"/>
<path transform="translate(1748.00,0)" d="M171.9998779296875 0 21.9996337890625 493H140.0013427734375L228.400634765625 169.6025390625L327.5994873046875 493H423.4007568359375L522.599609375 171.6025390625L611.9989013671875 493H730.400634765625L579.400390625 0H479.3990478515625L376.0001220703125 336.1976318359375L273.4012451171875 0Z"/>
<path transform="translate(2832.00,0)" d="M63.799560546875 0V493H174.6011962890625V0ZM58.5997314453125 573.5994873046875V697.0H180.2010498046875V573.5994873046875Z"/>
<path transform="translate(3107.00,0)" d="M244.4005126953125 -9.2000732421875Q206.600341796875 -9.2000732421875 174.30010986328125 5.29998779296875Q141.9998779296875 19.800048828125 122.99969482421875 52.40020751953125Q103.99951171875 85.0003662109375 103.99951171875 138.4007568359375V613.3992919921875L216.401123046875 674.60009765625V168.80126953125Q216.401123046875 126.6011962890625 228.60107421875 104.30120849609375Q240.801025390625 82.001220703125 274.4010009765625 82.001220703125Q284.4010009765625 82.001220703125 297.6009521484375 84.30120849609375Q310.8009033203125 86.6011962890625 326.0008544921875 90.6011962890625V5Q305.80078125 -2.4000244140625 285.30072021484375 -5.800048828125Q264.8006591796875 -9.2000732421875 244.4005126953125 -9.2000732421875ZM10 406.5987548828125V493H326.0008544921875V406.5987548828125Z"/>
<path transform="translate(3503.00,0)" d="M59.1993408203125 0V126.400634765625H180.8006591796875V0Z"/>
<path transform="translate(4075.00,0)" d="M224.1998291015625 0 16.599609375 697H137.4013671875L287.6007080078125 176.6026611328125L428.9996337890625 657.39990234375H543.4012451171875L684.8001708984375 176.6026611328125L834.3995361328125 697H955.2012939453125L747.60107421875 0H634.99951171875L476.80029296875 519.597900390625H495.6005859375L337.4013671875 0Z"/>
<path transform="translate(5083.00,0)" d="M383.19921875 0 374.799072265625 82.5989990234375V310.60009765625Q374.799072265625 358.799560546875 345.89923095703125 383.399169921875Q316.9993896484375 407.998779296875 265 407.998779296875Q225.4000244140625 407.998779296875 186.7998046875 392.298828125Q148.1995849609375 376.598876953125 116.399658203125 344.79931640625L54.1995849609375 418.400634765625Q102.4000244140625 462.8004150390625 156.40008544921875 482.500244140625Q210.400146484375 502.2000732421875 273.8001708984375 502.2000732421875Q374.0003662109375 502.2000732421875 429.60052490234375 451.60003662109375Q485.20068359375 401 485.20068359375 310.60009765625V0ZM229.7998046875 -9.2000732421875Q174.9998779296875 -9.2000732421875 132.6998291015625 10.699951171875Q90.3997802734375 30.5999755859375 66.69970703125 66.800048828125Q42.9996337890625 103.0001220703125 42.9996337890625 150.6002197265625Q42.9996337890625 192.4002685546875 60.2996826171875 222.30035400390625Q77.5997314453125 252.200439453125 105.599853515625 268.6004638671875Q130.3997802734375 284.0003662109375 162.09967041015625 290.30035400390625Q193.799560546875 296.600341796875 229.199462890625 296.600341796875H384.399169921875V213.7991943359375H245.19970703125Q227.199951171875 213.7991943359375 209.00030517578125 210.5992431640625Q190.8006591796875 207.3992919921875 177.200927734375 197.5994873046875Q166.60107421875 189.599609375 160.50115966796875 177.59979248046875Q154.4012451171875 165.5999755859375 154.4012451171875 150.000244140625Q154.4012451171875 118.20068359375 178.80096435546875 99.40093994140625Q203.20068359375 80.6011962890625 244.2001953125 80.6011962890625Q279.9998779296875 80.6011962890625 309.4996337890625 96.60101318359375Q338.9993896484375 112.600830078125 356.89923095703125 140.70050048828125Q374.799072265625 168.8001708984375 374.799072265625 204.3997802734375L408.5989990234375 148.798583984375Q397.398681640625 96.5986328125 371.19866943359375 61.198974609375Q344.9986572265625 25.79931640625 308.89892578125 8.29962158203125Q272.7991943359375 -9.2000732421875 229.7998046875 -9.2000732421875Z"/>
<path transform="translate(5663.00,0)" d="M244.4005126953125 -9.2000732421875Q206.600341796875 -9.2000732421875 174.30010986328125 5.29998779296875Q141.9998779296875 19.800048828125 122.99969482421875 52.40020751953125Q103.99951171875 85.0003662109375 103.99951171875 138.4007568359375V613.3992919921875L216.401123046875 674.60009765625V168.80126953125Q216.401123046875 126.6011962890625 228.60107421875 104.30120849609375Q240.801025390625 82.001220703125 274.4010009765625 82.001220703125Q284.4010009765625 82.001220703125 297.6009521484375 84.30120849609375Q310.8009033203125 86.6011962890625 326.0008544921875 90.6011962890625V5Q305.80078125 -2.4000244140625 285.30072021484375 -5.800048828125Q264.8006591796875 -9.2000732421875 244.4005126953125 -9.2000732421875ZM10 406.5987548828125V493H326.0008544921875V406.5987548828125Z"/>
<path transform="translate(6059.00,0)" d="M277.800048828125 -9.2000732421875Q219.599853515625 -9.2000732421875 175.499755859375 11.5999755859375Q131.399658203125 32.4000244140625 101.599609375 68.50006103515625Q71.799560546875 104.60009765625 56.799560546875 150.60009765625Q41.799560546875 196.60009765625 41.799560546875 247Q41.799560546875 296.7999267578125 56.799560546875 342.7999267578125Q71.799560546875 388.7999267578125 101.599609375 424.699951171875Q131.399658203125 460.5999755859375 175.499755859375 481.4000244140625Q219.599853515625 502.2000732421875 277.800048828125 502.2000732421875Q351.000244140625 502.2000732421875 405.30035400390625 467.0Q459.6004638671875 431.7999267578125 485.800537109375 359.3997802734375L388.399169921875 321.19921875Q375.999267578125 358.7989501953125 349.19952392578125 382.3988037109375Q322.3997802734375 405.9986572265625 277.800048828125 405.9986572265625Q234.400390625 405.9986572265625 206.60064697265625 382.99884033203125Q178.8009033203125 359.9990234375 165.7010498046875 323.79931640625Q152.6011962890625 287.599609375 152.6011962890625 247Q152.6011962890625 206.400390625 165.7010498046875 169.70068359375Q178.8009033203125 133.0009765625 206.60064697265625 110.3011474609375Q234.400390625 87.601318359375 277.800048828125 87.601318359375Q322.3997802734375 87.601318359375 349.19952392578125 110.90118408203125Q375.999267578125 134.2010498046875 388.399169921875 172.4007568359375L485.800537109375 134.2001953125Q459.6004638671875 61.800048828125 405.30035400390625 26.29998779296875Q351.000244140625 -9.2000732421875 277.800048828125 -9.2000732421875Z"/>
<path transform="translate(6616.00,0)" d="M64.799560546875 0V697H176.201171875V383.5997314453125L155.6011962890625 378.7999267578125Q168.8011474609375 421.6002197265625 194.201171875 448.80023193359375Q219.6011962890625 476.000244140625 253.00115966796875 489.10015869140625Q286.401123046875 502.2000732421875 322.8009033203125 502.2000732421875Q405.801025390625 502.2000732421875 452.60107421875 454.7000732421875Q499.401123046875 407.2000732421875 499.401123046875 319.0003662109375V0H387.99951171875V277.999755859375Q387.99951171875 344.19921875 364.0997314453125 375.09893798828125Q340.199951171875 405.9986572265625 290.2003173828125 405.9986572265625Q234.400634765625 405.9986572265625 205.3009033203125 366.098876953125Q176.201171875 326.1990966796875 176.201171875 239.599609375V0Z"/>
<path transform="translate(7507.00,0)" d="M63.799560546875 0V493H174.6011962890625V0ZM58.5997314453125 573.5994873046875V697.0H180.2010498046875V573.5994873046875Z"/>
<path transform="translate(7782.00,0)" d="M244.4005126953125 -9.2000732421875Q206.600341796875 -9.2000732421875 174.30010986328125 5.29998779296875Q141.9998779296875 19.800048828125 122.99969482421875 52.40020751953125Q103.99951171875 85.0003662109375 103.99951171875 138.4007568359375V613.3992919921875L216.401123046875 674.60009765625V168.80126953125Q216.401123046875 126.6011962890625 228.60107421875 104.30120849609375Q240.801025390625 82.001220703125 274.4010009765625 82.001220703125Q284.4010009765625 82.001220703125 297.6009521484375 84.30120849609375Q310.8009033203125 86.6011962890625 326.0008544921875 90.6011962890625V5Q305.80078125 -2.4000244140625 285.30072021484375 -5.800048828125Q264.8006591796875 -9.2000732421875 244.4005126953125 -9.2000732421875ZM10 406.5987548828125V493H326.0008544921875V406.5987548828125Z"/>
<path transform="translate(8474.00,0)" d="M64.799560546875 0V493H176.6011962890625V359.7999267578125L156.2012939453125 356.800048828125Q160.8011474609375 400 184.9010009765625 432.70001220703125Q209.0008544921875 465.4000244140625 243.30078125 483.800048828125Q277.6007080078125 502.2000732421875 312.000732421875 502.2000732421875Q336.2008056640625 502.2000732421875 358.20086669921875 496.20001220703125Q380.200927734375 490.199951171875 403.801025390625 476.1998291015625L349.80029296875 376.1983642578125Q338.600341796875 382.598388671875 321.50030517578125 387.19842529296875Q304.4002685546875 391.7984619140625 288.2001953125 391.7984619140625Q267.0003662109375 391.7984619140625 246.7005615234375 383.99853515625Q226.4007568359375 376.1986083984375 210.40093994140625 359.79876708984375Q194.401123046875 343.39892578125 185.6011962890625 316.5992431640625Q181.201171875 302.5992431640625 178.701171875 280.499267578125Q176.201171875 258.3992919921875 176.201171875 218.19921875V0Z"/>
<path transform="translate(8930.00,0)" d="M235.9998779296875 -9.2000732421875Q178.1995849609375 -9.2000732421875 138.3995361328125 13.9000244140625Q98.5994873046875 37.0001220703125 78.69952392578125 80.2001953125Q58.799560546875 123.4002685546875 58.799560546875 183.8001708984375V493H169.6011962890625V214.2001953125Q169.6011962890625 175.2008056640625 179.10101318359375 146.7010498046875Q188.600830078125 118.2012939453125 210.400634765625 102.90130615234375Q232.200439453125 87.601318359375 268.8004150390625 87.601318359375Q311.800537109375 87.601318359375 336.30029296875 110.50152587890625Q360.800048828125 133.4017333984375 371.3997802734375 176.6019287109375Q381.99951171875 219.8021240234375 381.99951171875 280.802001953125V493H492.8011474609375V0H381.99951171875V106.2000732421875L400.599365234375 99.399658203125Q378.3992919921875 43.1995849609375 334.59942626953125 16.999755859375Q290.799560546875 -9.2000732421875 235.9998779296875 -9.2000732421875Z"/>
<path transform="translate(9525.00,0)" d="M64.799560546875 0V493H176.201171875V383.5997314453125L156.201171875 379.39990234375Q169.401123046875 422.2001953125 194.201171875 449.1002197265625Q219.001220703125 476.000244140625 252.40118408203125 489.10015869140625Q285.8011474609375 502.2000732421875 322.8009033203125 502.2000732421875Q405.801025390625 502.2000732421875 452.60107421875 454.7000732421875Q499.401123046875 407.2000732421875 499.401123046875 319.0003662109375V0H387.99951171875V277.999755859375Q387.99951171875 344.19921875 364.0997314453125 375.09893798828125Q340.199951171875 405.9986572265625 290.2003173828125 405.9986572265625Q252.800537109375 405.9986572265625 227.500732421875 388.5987548828125Q202.200927734375 371.1988525390625 189.2010498046875 334.299072265625Q176.201171875 297.3992919921875 176.201171875 239.599609375V0Z"/>
<path transform="translate(10120.00,0)" d="M59.1993408203125 0V126.400634765625H180.8006591796875V0Z"/>
</g>
</svg>
